# 3ds Max Wavefront OBJ Exporter v0.97b - (c)2007 guruware
# File Created: 19.05.2017 14:06:49

mtllib voile_01.mtl

#
# object voile_01
#

v  -236.5374 74.5241 308.7959
v  -237.3573 74.5619 308.1454
v  -238.0845 74.5824 309.0621
v  -237.2646 74.5602 309.7126
v  -235.7175 74.4820 309.4463
v  -236.4447 74.5315 310.3629
v  -234.8976 74.4442 310.0967
v  -235.6248 74.5044 311.0134
v  -234.0777 74.4180 310.7471
v  -234.8049 74.4853 311.6638
v  -233.2578 74.4087 311.3975
v  -233.9850 74.4784 312.3142
v  -232.4379 74.4180 312.0479
v  -233.1651 74.4853 312.9646
v  -231.6180 74.4442 312.6983
v  -232.3452 74.5044 313.6150
v  -230.7981 74.4820 313.3488
v  -231.5253 74.5315 314.2654
v  -229.9782 74.5241 313.9991
v  -230.7054 74.5602 314.9159
v  -229.1583 74.5619 314.6496
v  -229.8855 74.5824 315.5663
v  -235.8103 74.4848 307.8792
v  -236.6302 74.5359 307.2288
v  -234.9904 74.4306 308.5296
v  -234.1704 74.3829 309.1800
v  -233.3505 74.3500 309.8304
v  -232.5306 74.3382 310.4808
v  -231.7107 74.3500 311.1312
v  -230.8908 74.3829 311.7816
v  -230.0709 74.4306 312.4321
v  -229.2510 74.4848 313.0825
v  -228.4311 74.5359 313.7329
v  -235.0831 74.4499 306.9625
v  -235.9030 74.5116 306.3121
v  -234.2632 74.3859 307.6129
v  -233.4433 74.3296 308.2633
v  -232.6234 74.2905 308.9137
v  -231.8035 74.2763 309.5641
v  -230.9836 74.2905 310.2145
v  -230.1637 74.3278 310.8650
v  -229.3438 74.3697 311.5154
v  -228.5238 74.4179 312.1658
v  -227.7039 74.4731 312.8162
v  -234.3559 74.4259 306.0458
v  -235.1758 74.4944 305.3954
v  -233.5360 74.3553 306.6962
v  -232.7161 74.2929 307.3466
v  -231.8962 74.2487 307.9970
v  -231.0762 74.2323 308.6474
v  -230.2563 74.2317 309.2979
v  -229.4364 74.2299 309.9483
v  -228.6165 74.2401 310.5987
v  -227.7966 74.2712 311.2491
v  -226.9767 74.3250 311.8995
v  -233.6287 74.4174 305.1291
v  -234.4486 74.4883 304.4787
v  -232.8088 74.3444 305.7795
v  -231.9889 74.2797 306.4299
v  -231.1690 74.2333 307.0803
v  -230.3491 74.1921 307.7307
v  -229.5292 74.1376 308.3812
v  -228.7093 74.0905 309.0316
v  -227.8894 74.0663 309.6820
v  -227.0695 74.0761 310.3324
v  -226.2496 74.1241 310.9828
v  -232.9015 74.4259 304.2124
v  -233.7214 74.4944 303.5620
v  -232.0816 74.3553 304.8628
v  -231.2617 74.2929 305.5132
v  -230.4418 74.2365 306.1636
v  -229.6219 74.1423 306.8141
v  -228.8020 74.0357 307.4645
v  -227.9821 73.9421 308.1149
v  -227.1622 73.8803 308.7653
v  -226.3423 73.8647 309.4157
v  -225.5224 73.9022 310.0661
v  -232.1743 74.4499 303.2957
v  -232.9942 74.5116 302.6453
v  -231.3544 74.3859 303.9461
v  -230.5345 74.3296 304.5965
v  -229.7146 74.2404 305.2469
v  -228.8947 74.1015 305.8974
v  -228.0748 73.9488 306.5478
v  -227.2549 73.8107 307.1982
v  -226.4350 73.7103 307.8486
v  -225.6151 73.6660 308.4990
v  -224.7952 73.6888 309.1494
v  -231.4471 74.4848 302.3790
v  -232.2670 74.5359 301.7286
v  -230.6272 74.4306 303.0294
v  -229.8073 74.3760 303.6798
v  -228.9874 74.2561 304.3303
v  -228.1675 74.0835 304.9807
v  -227.3476 73.8936 305.6311
v  -226.5277 73.7171 306.2815
v  -225.7078 73.5803 306.9319
v  -224.8879 73.5059 307.5823
v  -224.0680 73.5105 308.2327
v  -230.7199 74.5241 301.4623
v  -231.5398 74.5619 300.8119
v  -229.9000 74.4820 302.1127
v  -229.0801 74.4270 302.7632
v  -228.2602 74.2906 303.4136
v  -227.4403 74.0974 304.0640
v  -226.6204 73.8827 304.7144
v  -225.8005 73.6778 305.3648
v  -224.9806 73.5110 306.0152
v  -224.1607 73.4083 306.6656
v  -223.3408 73.3924 307.3160
v  -229.9927 74.5602 300.5456
v  -230.8126 74.5824 299.8952
v  -229.1728 74.5315 301.1960
v  -228.3529 74.4827 301.8465
v  -227.5330 74.3453 302.4969
v  -226.7131 74.1466 303.1473
v  -225.8932 73.9215 303.7977
v  -225.0733 73.7020 304.4481
v  -224.2534 73.5170 305.0985
v  -223.4335 73.3939 305.7489
v  -222.6136 73.3581 306.3994
# 121 vertices

vn 0.0493 0.9988 -0.0014
vn 0.0448 0.9990 0.0063
vn 0.0373 0.9993 -0.0018
vn 0.0424 0.9991 -0.0096
vn 0.0561 0.9984 -0.0100
vn 0.0505 0.9986 -0.0170
vn 0.0555 0.9982 -0.0216
vn 0.0514 0.9983 -0.0268
vn 0.0484 0.9982 -0.0346
vn 0.0462 0.9982 -0.0373
vn 0.0364 0.9982 -0.0467
vn 0.0362 0.9983 -0.0465
vn 0.0219 0.9982 -0.0556
vn 0.0237 0.9983 -0.0524
vn 0.0079 0.9982 -0.0595
vn 0.0113 0.9985 -0.0535
vn -0.0033 0.9983 -0.0574
vn 0.0012 0.9988 -0.0491
vn -0.0099 0.9988 -0.0489
vn -0.0048 0.9992 -0.0385
vn -0.0110 0.9992 -0.0386
vn -0.0058 0.9996 -0.0269
vn 0.0585 0.9983 0.0065
vn 0.0549 0.9984 0.0131
vn 0.0630 0.9980 -0.0018
vn 0.0599 0.9981 -0.0143
vn 0.0498 0.9983 -0.0293
vn 0.0343 0.9984 -0.0441
vn 0.0168 0.9983 -0.0558
vn 0.0027 0.9980 -0.0630
vn -0.0058 0.9977 -0.0680
vn -0.0099 0.9977 -0.0668
vn -0.0105 0.9981 -0.0605
vn 0.0619 0.9979 0.0176
vn 0.0592 0.9980 0.0224
vn 0.0643 0.9979 0.0105
vn 0.0590 0.9983 -0.0017
vn 0.0462 0.9988 -0.0180
vn 0.0300 0.9989 -0.0357
vn 0.0187 0.9983 -0.0556
vn 0.0166 0.9970 -0.0753
vn 0.0185 0.9957 -0.0903
vn 0.0171 0.9947 -0.1015
vn 0.0158 0.9946 -0.1028
vn 0.0599 0.9977 0.0305
vn 0.0581 0.9978 0.0327
vn 0.0600 0.9979 0.0257
vn 0.0525 0.9985 0.0150
vn 0.0409 0.9992 -0.0016
vn 0.0368 0.9990 -0.0242
vn 0.0462 0.9976 -0.0509
vn 0.0588 0.9949 -0.0814
vn 0.0629 0.9916 -0.1127
vn 0.0566 0.9888 -0.1378
vn 0.0512 0.9878 -0.1468
vn 0.0530 0.9977 0.0427
vn 0.0522 0.9977 0.0421
vn 0.0507 0.9979 0.0409
vn 0.0428 0.9985 0.0328
vn 0.0440 0.9988 0.0208
vn 0.0639 0.9980 -0.0023
vn 0.0885 0.9955 -0.0351
vn 0.1011 0.9921 -0.0744
vn 0.0984 0.9885 -0.1146
vn 0.0833 0.9851 -0.1507
vn 0.0732 0.9833 -0.1669
vn 0.0427 0.9977 0.0522
vn 0.0429 0.9979 0.0487
vn 0.0381 0.9978 0.0533
vn 0.0367 0.9980 0.0512
vn 0.0597 0.9971 0.0462
vn 0.0976 0.9948 0.0293
vn 0.1229 0.9924 -0.0036
vn 0.1300 0.9904 -0.0469
vn 0.1207 0.9882 -0.0949
vn 0.0976 0.9851 -0.1414
vn 0.0828 0.9829 -0.1647
vn 0.0309 0.9979 0.0570
vn 0.0318 0.9982 0.0509
vn 0.0257 0.9978 0.0607
vn 0.0381 0.9968 0.0700
vn 0.0797 0.9941 0.0738
vn 0.1223 0.9903 0.0664
vn 0.1438 0.9889 0.0385
vn 0.1461 0.9893 -0.0043
vn 0.1311 0.9897 -0.0567
vn 0.1005 0.9886 -0.1121
vn 0.0812 0.9865 -0.1421
vn 0.0194 0.9982 0.0561
vn 0.0207 0.9986 0.0477
vn 0.0168 0.9978 0.0641
vn 0.0421 0.9956 0.0837
vn 0.0935 0.9903 0.1028
vn 0.1334 0.9855 0.1049
vn 0.1510 0.9848 0.0855
vn 0.1493 0.9876 0.0481
vn 0.1295 0.9916 -0.0038
vn 0.0924 0.9936 -0.0648
vn 0.0690 0.9926 -0.1003
vn 0.0099 0.9988 0.0489
vn 0.0110 0.9992 0.0386
vn 0.0105 0.9980 0.0624
vn 0.0431 0.9948 0.0920
vn 0.0966 0.9873 0.1263
vn 0.1318 0.9814 0.1398
vn 0.1452 0.9806 0.1315
vn 0.1393 0.9848 0.1038
vn 0.1151 0.9916 0.0584
vn 0.0725 0.9974 -0.0021
vn 0.0458 0.9981 -0.0405
vn 0.0048 0.9992 0.0385
vn 0.0058 0.9996 0.0269
vn 0.0069 0.9984 0.0555
vn 0.0416 0.9949 0.0917
vn 0.0949 0.9864 0.1344
vn 0.1280 0.9795 0.1557
vn 0.1394 0.9780 0.1550
vn 0.1315 0.9822 0.1344
vn 0.1052 0.9899 0.0951
vn 0.0605 0.9974 0.0381
vn 0.0325 0.9995 -0.0001
# 121 vertex normals

vt 0.1000 0.1000 0.0000
vt 0.0000 0.1000 0.0000
vt 0.0000 0.0000 0.0000
vt 0.1000 0.0000 0.0000
vt 0.2000 0.1000 0.0000
vt 0.2000 0.0000 0.0000
vt 0.3000 0.1000 0.0000
vt 0.3000 0.0000 0.0000
vt 0.4000 0.1000 0.0000
vt 0.4000 0.0000 0.0000
vt 0.5000 0.1000 0.0000
vt 0.5000 0.0000 0.0000
vt 0.6000 0.1000 0.0000
vt 0.6000 0.0000 0.0000
vt 0.7000 0.1000 0.0000
vt 0.7000 0.0000 0.0000
vt 0.8000 0.1000 0.0000
vt 0.8000 0.0000 0.0000
vt 0.9000 0.1000 0.0000
vt 0.9000 0.0000 0.0000
vt 1.0000 0.1000 0.0000
vt 1.0000 0.0000 0.0000
vt 0.1000 0.2000 0.0000
vt 0.0000 0.2000 0.0000
vt 0.2000 0.2000 0.0000
vt 0.3000 0.2000 0.0000
vt 0.4000 0.2000 0.0000
vt 0.5000 0.2000 0.0000
vt 0.6000 0.2000 0.0000
vt 0.7000 0.2000 0.0000
vt 0.8000 0.2000 0.0000
vt 0.9000 0.2000 0.0000
vt 1.0000 0.2000 0.0000
vt 0.1000 0.3000 0.0000
vt 0.0000 0.3000 0.0000
vt 0.2000 0.3000 0.0000
vt 0.3000 0.3000 0.0000
vt 0.4000 0.3000 0.0000
vt 0.5000 0.3000 0.0000
vt 0.6000 0.3000 0.0000
vt 0.7000 0.3000 0.0000
vt 0.8000 0.3000 0.0000
vt 0.9000 0.3000 0.0000
vt 1.0000 0.3000 0.0000
vt 0.1000 0.4000 0.0000
vt 0.0000 0.4000 0.0000
vt 0.2000 0.4000 0.0000
vt 0.3000 0.4000 0.0000
vt 0.4000 0.4000 0.0000
vt 0.5000 0.4000 0.0000
vt 0.6000 0.4000 0.0000
vt 0.7000 0.4000 0.0000
vt 0.8000 0.4000 0.0000
vt 0.9000 0.4000 0.0000
vt 1.0000 0.4000 0.0000
vt 0.1000 0.5000 0.0000
vt 0.0000 0.5000 0.0000
vt 0.2000 0.5000 0.0000
vt 0.3000 0.5000 0.0000
vt 0.4000 0.5000 0.0000
vt 0.5000 0.5000 0.0000
vt 0.6000 0.5000 0.0000
vt 0.7000 0.5000 0.0000
vt 0.8000 0.5000 0.0000
vt 0.9000 0.5000 0.0000
vt 1.0000 0.5000 0.0000
vt 0.1000 0.6000 0.0000
vt 0.0000 0.6000 0.0000
vt 0.2000 0.6000 0.0000
vt 0.3000 0.6000 0.0000
vt 0.4000 0.6000 0.0000
vt 0.5000 0.6000 0.0000
vt 0.6000 0.6000 0.0000
vt 0.7000 0.6000 0.0000
vt 0.8000 0.6000 0.0000
vt 0.9000 0.6000 0.0000
vt 1.0000 0.6000 0.0000
vt 0.1000 0.7000 0.0000
vt 0.0000 0.7000 0.0000
vt 0.2000 0.7000 0.0000
vt 0.3000 0.7000 0.0000
vt 0.4000 0.7000 0.0000
vt 0.5000 0.7000 0.0000
vt 0.6000 0.7000 0.0000
vt 0.7000 0.7000 0.0000
vt 0.8000 0.7000 0.0000
vt 0.9000 0.7000 0.0000
vt 1.0000 0.7000 0.0000
vt 0.1000 0.8000 0.0000
vt 0.0000 0.8000 0.0000
vt 0.2000 0.8000 0.0000
vt 0.3000 0.8000 0.0000
vt 0.4000 0.8000 0.0000
vt 0.5000 0.8000 0.0000
vt 0.6000 0.8000 0.0000
vt 0.7000 0.8000 0.0000
vt 0.8000 0.8000 0.0000
vt 0.9000 0.8000 0.0000
vt 1.0000 0.8000 0.0000
vt 0.1000 0.9000 0.0000
vt 0.0000 0.9000 0.0000
vt 0.2000 0.9000 0.0000
vt 0.3000 0.9000 0.0000
vt 0.4000 0.9000 0.0000
vt 0.5000 0.9000 0.0000
vt 0.6000 0.9000 0.0000
vt 0.7000 0.9000 0.0000
vt 0.8000 0.9000 0.0000
vt 0.9000 0.9000 0.0000
vt 1.0000 0.9000 0.0000
vt 0.1000 1.0000 0.0000
vt 0.0000 1.0000 0.0000
vt 0.2000 1.0000 0.0000
vt 0.3000 1.0000 0.0000
vt 0.4000 1.0000 0.0000
vt 0.5000 1.0000 0.0000
vt 0.6000 1.0000 0.0000
vt 0.7000 1.0000 0.0000
vt 0.8000 1.0000 0.0000
vt 0.9000 1.0000 0.0000
vt 1.0000 1.0000 0.0000
# 121 texture coords

g voile_01
usemtl wire_088177027
f 1/1/1 2/2/2 3/3/3 4/4/4 
f 5/5/5 1/1/1 4/4/4 6/6/6 
f 7/7/7 5/5/5 6/6/6 8/8/8 
f 9/9/9 7/7/7 8/8/8 10/10/10 
f 11/11/11 9/9/9 10/10/10 12/12/12 
f 13/13/13 11/11/11 12/12/12 14/14/14 
f 15/15/15 13/13/13 14/14/14 16/16/16 
f 17/17/17 15/15/15 16/16/16 18/18/18 
f 19/19/19 17/17/17 18/18/18 20/20/20 
f 21/21/21 19/19/19 20/20/20 22/22/22 
f 23/23/23 24/24/24 2/2/2 1/1/1 
f 25/25/25 23/23/23 1/1/1 5/5/5 
f 26/26/26 25/25/25 5/5/5 7/7/7 
f 27/27/27 26/26/26 7/7/7 9/9/9 
f 28/28/28 27/27/27 9/9/9 11/11/11 
f 29/29/29 28/28/28 11/11/11 13/13/13 
f 30/30/30 29/29/29 13/13/13 15/15/15 
f 31/31/31 30/30/30 15/15/15 17/17/17 
f 32/32/32 31/31/31 17/17/17 19/19/19 
f 33/33/33 32/32/32 19/19/19 21/21/21 
f 34/34/34 35/35/35 24/24/24 23/23/23 
f 36/36/36 34/34/34 23/23/23 25/25/25 
f 37/37/37 36/36/36 25/25/25 26/26/26 
f 38/38/38 37/37/37 26/26/26 27/27/27 
f 39/39/39 38/38/38 27/27/27 28/28/28 
f 40/40/40 39/39/39 28/28/28 29/29/29 
f 41/41/41 40/40/40 29/29/29 30/30/30 
f 42/42/42 41/41/41 30/30/30 31/31/31 
f 43/43/43 42/42/42 31/31/31 32/32/32 
f 44/44/44 43/43/43 32/32/32 33/33/33 
f 45/45/45 46/46/46 35/35/35 34/34/34 
f 47/47/47 45/45/45 34/34/34 36/36/36 
f 48/48/48 47/47/47 36/36/36 37/37/37 
f 49/49/49 48/48/48 37/37/37 38/38/38 
f 50/50/50 49/49/49 38/38/38 39/39/39 
f 51/51/51 50/50/50 39/39/39 40/40/40 
f 52/52/52 51/51/51 40/40/40 41/41/41 
f 53/53/53 52/52/52 41/41/41 42/42/42 
f 54/54/54 53/53/53 42/42/42 43/43/43 
f 55/55/55 54/54/54 43/43/43 44/44/44 
f 56/56/56 57/57/57 46/46/46 45/45/45 
f 58/58/58 56/56/56 45/45/45 47/47/47 
f 59/59/59 58/58/58 47/47/47 48/48/48 
f 60/60/60 59/59/59 48/48/48 49/49/49 
f 61/61/61 60/60/60 49/49/49 50/50/50 
f 62/62/62 61/61/61 50/50/50 51/51/51 
f 63/63/63 62/62/62 51/51/51 52/52/52 
f 64/64/64 63/63/63 52/52/52 53/53/53 
f 65/65/65 64/64/64 53/53/53 54/54/54 
f 66/66/66 65/65/65 54/54/54 55/55/55 
f 67/67/67 68/68/68 57/57/57 56/56/56 
f 69/69/69 67/67/67 56/56/56 58/58/58 
f 70/70/70 69/69/69 58/58/58 59/59/59 
f 71/71/71 70/70/70 59/59/59 60/60/60 
f 72/72/72 71/71/71 60/60/60 61/61/61 
f 73/73/73 72/72/72 61/61/61 62/62/62 
f 74/74/74 73/73/73 62/62/62 63/63/63 
f 75/75/75 74/74/74 63/63/63 64/64/64 
f 76/76/76 75/75/75 64/64/64 65/65/65 
f 77/77/77 76/76/76 65/65/65 66/66/66 
f 78/78/78 79/79/79 68/68/68 67/67/67 
f 80/80/80 78/78/78 67/67/67 69/69/69 
f 81/81/81 80/80/80 69/69/69 70/70/70 
f 82/82/82 81/81/81 70/70/70 71/71/71 
f 83/83/83 82/82/82 71/71/71 72/72/72 
f 84/84/84 83/83/83 72/72/72 73/73/73 
f 85/85/85 84/84/84 73/73/73 74/74/74 
f 86/86/86 85/85/85 74/74/74 75/75/75 
f 87/87/87 86/86/86 75/75/75 76/76/76 
f 88/88/88 87/87/87 76/76/76 77/77/77 
f 89/89/89 90/90/90 79/79/79 78/78/78 
f 91/91/91 89/89/89 78/78/78 80/80/80 
f 92/92/92 91/91/91 80/80/80 81/81/81 
f 93/93/93 92/92/92 81/81/81 82/82/82 
f 94/94/94 93/93/93 82/82/82 83/83/83 
f 95/95/95 94/94/94 83/83/83 84/84/84 
f 96/96/96 95/95/95 84/84/84 85/85/85 
f 97/97/97 96/96/96 85/85/85 86/86/86 
f 98/98/98 97/97/97 86/86/86 87/87/87 
f 99/99/99 98/98/98 87/87/87 88/88/88 
f 100/100/100 101/101/101 90/90/90 89/89/89 
f 102/102/102 100/100/100 89/89/89 91/91/91 
f 103/103/103 102/102/102 91/91/91 92/92/92 
f 104/104/104 103/103/103 92/92/92 93/93/93 
f 105/105/105 104/104/104 93/93/93 94/94/94 
f 106/106/106 105/105/105 94/94/94 95/95/95 
f 107/107/107 106/106/106 95/95/95 96/96/96 
f 108/108/108 107/107/107 96/96/96 97/97/97 
f 109/109/109 108/108/108 97/97/97 98/98/98 
f 110/110/110 109/109/109 98/98/98 99/99/99 
f 111/111/111 112/112/112 101/101/101 100/100/100 
f 113/113/113 111/111/111 100/100/100 102/102/102 
f 114/114/114 113/113/113 102/102/102 103/103/103 
f 115/115/115 114/114/114 103/103/103 104/104/104 
f 116/116/116 115/115/115 104/104/104 105/105/105 
f 117/117/117 116/116/116 105/105/105 106/106/106 
f 118/118/118 117/117/117 106/106/106 107/107/107 
f 119/119/119 118/118/118 107/107/107 108/108/108 
f 120/120/120 119/119/119 108/108/108 109/109/109 
f 121/121/121 120/120/120 109/109/109 110/110/110 
# 100 polygons

